<?xml version="1.0" encoding="UTF-8"?>
<svg width="24px" height="24px" viewBox="0 0 30 30" version="1.1" xmlns="http://www.w3.org/2000/svg" xmlns:xlink="http://www.w3.org/1999/xlink">
    <!-- Generator: Sketch 48.2 (47327) - http://www.bohemiancoding.com/sketch -->
    <title>Fill 141</title>
    <desc>Created with Sketch.</desc>
    <defs></defs>
    <g id="Page-1" stroke="none" stroke-width="1" fill="none" fill-rule="evenodd">
        <path d="M15,0 C6.729,0 0,6.75 0,15.047 C0,22.047 4.785,28.329 11.378,29.985 C11.529,30.022 11.686,29.99 11.808,29.895 C11.929,29.8 12,29.654 12,29.5 L12,25.693 C12,25.462 11.841,25.261 11.616,25.207 C11.267,25.123 10.892,25.081 10.5,25.081 C8.852,25.081 7.697,23.564 6.678,22.226 C6.516,22.013 6.357,21.805 6.201,21.607 C6.701,21.894 7.101,22.258 7.495,22.616 C8.181,23.241 8.89,23.888 9.993,23.888 C10.1,23.89 11.187,23.886 11.853,23.225 C11.947,23.131 12,23.003 12,22.87 L12,22.002 C12,21.787 11.863,21.597 11.659,21.528 C8.221,20.375 6,17.635 6,14.546 C6,12.896 6.637,11.323 7.841,10 C7.972,9.856 8.008,9.649 7.933,9.471 C7.479,8.384 7.621,6.962 8.228,6.137 C8.915,6.392 9.838,6.952 10.508,7.667 C10.65,7.817 10.871,7.869 11.062,7.788 C13.557,6.769 16.443,6.769 18.938,7.788 C19.129,7.868 19.35,7.818 19.492,7.667 C20.162,6.952 21.085,6.392 21.772,6.137 C22.379,6.962 22.521,8.384 22.067,9.471 C21.992,9.649 22.028,9.856 22.159,10 C23.363,11.323 24,12.896 24,14.546 C24,17.704 21.606,20.547 18.043,21.62 C17.914,21.659 17.806,21.748 17.744,21.868 C17.682,21.987 17.67,22.128 17.713,22.256 C17.903,22.832 18,23.416 18,23.992 L18,29.5 C18,29.654 18.071,29.8 18.192,29.895 C18.281,29.964 18.39,30 18.5,30 C18.541,30 18.582,29.995 18.622,29.985 C25.215,28.329 30,22.047 30,15.047 C30,6.75 23.271,0 15,0" id="Fill-141" fill-opacity="0.5" fill="#303C42"></path>
    </g>
</svg>