<?xml version="1.0" encoding="UTF-8"?>
<svg width="24px" viewBox="0 0 26 26" version="1.1" xmlns="http://www.w3.org/2000/svg" xmlns:xlink="http://www.w3.org/1999/xlink">
    <!-- Generator: Sketch 48.2 (47327) - http://www.bohemiancoding.com/sketch -->
    <title>Fill 115</title>
    <desc>Created with Sketch.</desc>
    <defs></defs>
    <g id="Page-1" stroke="none" stroke-width="1" fill="none" fill-rule="evenodd">
        <path d="M23,22.5 C23,22.776 22.776,23 22.5,23 L18.5,23 C18.224,23 18,22.776 18,22.5 L18,15.5 C18,14.673 17.327,14 16.5,14 C15.673,14 15,14.673 15,15.5 L15,22.5 C15,22.776 14.776,23 14.5,23 L10.5,23 C10.224,23 10,22.776 10,22.5 L10,10.5 C10,10.224 10.224,10 10.5,10 L14.5,10 C14.776,10 15,10.224 15,10.5 L15,11.019 C15.859,10.362 16.905,10 18,10 C20.757,10 23,12.243 23,15 L23,22.5 Z M6.5,9 C5.122,9 4,7.878 4,6.5 C4,5.122 5.122,4 6.5,4 C7.878,4 9,5.122 9,6.5 C9,7.878 7.878,9 6.5,9 Z M9,22.5 C9,22.776 8.776,23 8.5,23 L4.5,23 C4.224,23 4,22.776 4,22.5 L4,10.5 C4,10.224 4.224,10 4.5,10 L8.5,10 C8.776,10 9,10.224 9,10.5 L9,22.5 Z M24,0 L2,0 C0.897,0 0,0.897 0,2 L0,24 C0,25.103 0.897,26 2,26 L24,26 C25.103,26 26,25.103 26,24 L26,2 C26,0.897 25.103,0 24,0 Z" id="Fill-115" fill-opacity="0.5" fill="#303C42"></path>
    </g>
</svg>